<svg xmlns="http://www.w3.org/2000/svg" viewBox="0 0 200 200"><rect x="45" y="95" width="110" height="80" rx="36" fill="#f8fafc" stroke="#cbd5e1" stroke-width="3"/><path d="M47 125 H153" stroke="#cbd5e1" stroke-width="3"/><circle cx="100" cy="150" r="4" fill="#22c55e"/><g fill="#ffffff" stroke="#94a3b8" stroke-width="3"><path d="M70 30 a16 16 0 1 1 0 32 h-2 v28 a6 6 0 0 1 -12 0 V46 a16 16 0 0 1 14 -16z"/><path d="M130 30 a16 16 0 1 0 0 32 h2 v28 a6 6 0 0 0 12 0 V46 a16 16 0 0 0 -14 -16z"/></g></svg>
